<mxfile host="app.diagrams.net" modified="2023-09-16T23:49:24.784Z" agent="Mozilla/5.0 (Windows NT 10.0; Win64; x64; rv:109.0) Gecko/20100101 Firefox/117.0" etag="BSsxzuvGBfKheSWCQkbh" version="21.7.5" type="device">
  <diagram name="Page-1" id="8RL0StbFJul3TL8oMRlb">
    <mxGraphModel dx="1434" dy="754" grid="1" gridSize="10" guides="1" tooltips="1" connect="1" arrows="1" fold="1" page="1" pageScale="1" pageWidth="850" pageHeight="1100" math="0" shadow="0">
      <root>
        <mxCell id="0" />
        <mxCell id="1" parent="0" />
        <mxCell id="Spbf_wSKs5P7LlKTghZw-44" style="edgeStyle=orthogonalEdgeStyle;rounded=0;orthogonalLoop=1;jettySize=auto;html=1;exitX=0;exitY=0.5;exitDx=0;exitDy=0;entryX=1;entryY=0.5;entryDx=0;entryDy=0;" edge="1" parent="1" source="Spbf_wSKs5P7LlKTghZw-6" target="Spbf_wSKs5P7LlKTghZw-35">
          <mxGeometry relative="1" as="geometry" />
        </mxCell>
        <mxCell id="Spbf_wSKs5P7LlKTghZw-6" value="User Input" style="rounded=0;whiteSpace=wrap;html=1;fillColor=#d5e8d4;strokeColor=#82b366;" vertex="1" parent="1">
          <mxGeometry x="560" y="320" width="120" height="60" as="geometry" />
        </mxCell>
        <mxCell id="Spbf_wSKs5P7LlKTghZw-40" style="edgeStyle=orthogonalEdgeStyle;rounded=0;orthogonalLoop=1;jettySize=auto;html=1;entryX=0;entryY=0.5;entryDx=0;entryDy=0;" edge="1" parent="1" source="Spbf_wSKs5P7LlKTghZw-9" target="Spbf_wSKs5P7LlKTghZw-12">
          <mxGeometry relative="1" as="geometry" />
        </mxCell>
        <mxCell id="Spbf_wSKs5P7LlKTghZw-45" style="edgeStyle=orthogonalEdgeStyle;rounded=0;orthogonalLoop=1;jettySize=auto;html=1;exitX=0.5;exitY=1;exitDx=0;exitDy=0;entryX=0.5;entryY=0;entryDx=0;entryDy=0;" edge="1" parent="1" source="Spbf_wSKs5P7LlKTghZw-9" target="Spbf_wSKs5P7LlKTghZw-35">
          <mxGeometry relative="1" as="geometry" />
        </mxCell>
        <mxCell id="Spbf_wSKs5P7LlKTghZw-9" value="Message Receiver" style="rounded=0;whiteSpace=wrap;html=1;fillColor=#d5e8d4;strokeColor=#82b366;" vertex="1" parent="1">
          <mxGeometry x="260" y="220" width="120" height="60" as="geometry" />
        </mxCell>
        <mxCell id="Spbf_wSKs5P7LlKTghZw-10" value="&lt;div&gt;Data&lt;/div&gt;&lt;div&gt;Out&lt;br&gt;&lt;/div&gt;" style="shape=datastore;whiteSpace=wrap;html=1;fillColor=#f8cecc;strokeColor=#b85450;" vertex="1" parent="1">
          <mxGeometry x="160" y="320" width="60" height="60" as="geometry" />
        </mxCell>
        <mxCell id="Spbf_wSKs5P7LlKTghZw-33" style="edgeStyle=orthogonalEdgeStyle;rounded=0;orthogonalLoop=1;jettySize=auto;html=1;exitX=0.5;exitY=0;exitDx=0;exitDy=0;entryX=0;entryY=0.5;entryDx=0;entryDy=0;" edge="1" parent="1" source="Spbf_wSKs5P7LlKTghZw-12" target="Spbf_wSKs5P7LlKTghZw-25">
          <mxGeometry relative="1" as="geometry" />
        </mxCell>
        <mxCell id="Spbf_wSKs5P7LlKTghZw-42" style="edgeStyle=orthogonalEdgeStyle;rounded=0;orthogonalLoop=1;jettySize=auto;html=1;entryX=1;entryY=0.25;entryDx=0;entryDy=0;" edge="1" parent="1" source="Spbf_wSKs5P7LlKTghZw-12" target="Spbf_wSKs5P7LlKTghZw-35">
          <mxGeometry relative="1" as="geometry">
            <mxPoint x="460" y="340" as="targetPoint" />
            <Array as="points">
              <mxPoint x="460" y="335" />
            </Array>
          </mxGeometry>
        </mxCell>
        <mxCell id="Spbf_wSKs5P7LlKTghZw-12" value="State Manager" style="rounded=0;whiteSpace=wrap;html=1;fillColor=#d5e8d4;strokeColor=#82b366;" vertex="1" parent="1">
          <mxGeometry x="400" y="220" width="120" height="60" as="geometry" />
        </mxCell>
        <mxCell id="Spbf_wSKs5P7LlKTghZw-39" style="edgeStyle=orthogonalEdgeStyle;rounded=0;orthogonalLoop=1;jettySize=auto;html=1;entryX=0;entryY=0.5;entryDx=0;entryDy=0;" edge="1" parent="1" source="Spbf_wSKs5P7LlKTghZw-14" target="Spbf_wSKs5P7LlKTghZw-9">
          <mxGeometry relative="1" as="geometry" />
        </mxCell>
        <mxCell id="Spbf_wSKs5P7LlKTghZw-14" value="&lt;div&gt;Data&lt;/div&gt;&lt;div&gt;In&lt;/div&gt;" style="shape=datastore;whiteSpace=wrap;html=1;fillColor=#f5f5f5;strokeColor=#666666;fontColor=#333333;" vertex="1" parent="1">
          <mxGeometry x="160" y="220" width="60" height="60" as="geometry" />
        </mxCell>
        <mxCell id="Spbf_wSKs5P7LlKTghZw-15" value="State Display" style="rounded=0;whiteSpace=wrap;html=1;fillColor=#d5e8d4;strokeColor=#82b366;" vertex="1" parent="1">
          <mxGeometry x="560" y="220" width="120" height="60" as="geometry" />
        </mxCell>
        <mxCell id="Spbf_wSKs5P7LlKTghZw-31" style="edgeStyle=orthogonalEdgeStyle;rounded=0;orthogonalLoop=1;jettySize=auto;html=1;exitX=0.75;exitY=1;exitDx=0;exitDy=0;entryX=0.5;entryY=0;entryDx=0;entryDy=0;" edge="1" parent="1" source="Spbf_wSKs5P7LlKTghZw-25" target="Spbf_wSKs5P7LlKTghZw-15">
          <mxGeometry relative="1" as="geometry" />
        </mxCell>
        <mxCell id="Spbf_wSKs5P7LlKTghZw-25" value="System State" style="rounded=1;whiteSpace=wrap;html=1;fillStyle=hatch;strokeWidth=8;fillColor=#ffe6cc;strokeColor=#d79b00;" vertex="1" parent="1">
          <mxGeometry x="500" y="130" width="160" height="70" as="geometry" />
        </mxCell>
        <mxCell id="Spbf_wSKs5P7LlKTghZw-46" style="edgeStyle=orthogonalEdgeStyle;rounded=0;orthogonalLoop=1;jettySize=auto;html=1;exitX=0;exitY=0.5;exitDx=0;exitDy=0;entryX=1;entryY=0.5;entryDx=0;entryDy=0;" edge="1" parent="1" source="Spbf_wSKs5P7LlKTghZw-35" target="Spbf_wSKs5P7LlKTghZw-10">
          <mxGeometry relative="1" as="geometry" />
        </mxCell>
        <mxCell id="Spbf_wSKs5P7LlKTghZw-35" value="Message Handler" style="rounded=0;whiteSpace=wrap;html=1;fillColor=#d5e8d4;strokeColor=#82b366;" vertex="1" parent="1">
          <mxGeometry x="260" y="320" width="120" height="60" as="geometry" />
        </mxCell>
      </root>
    </mxGraphModel>
  </diagram>
</mxfile>
